<svg width="136" height="36" viewBox="0 0 136 36" fill="none" xmlns="http://www.w3.org/2000/svg">
<path fill-rule="evenodd" clip-rule="evenodd" d="M35.5833 18.2917C35.5833 27.8416 27.8416 35.5833 18.2917 35.5833C8.74174 35.5833 1 27.8416 1 18.2917C1 8.74174 8.74174 1 18.2917 1C27.8416 1 35.5833 8.74174 35.5833 18.2917ZM33.4291 18.2922C33.4291 26.6521 26.6521 33.4291 18.2922 33.4291C13.8212 33.3483 12.0809 31.2719 11.1816 29.1736C10.4141 27.3828 9.02689 25.7799 6.97991 24.7294C4.07103 22.9249 3.48816 20.3235 3.15527 18.2922C3.15527 9.93231 9.93231 3.15527 18.2922 3.15527C26.6521 3.15527 33.4291 9.93231 33.4291 18.2922ZM12.3115 14.9515C13.2165 12.7752 16.6389 8.83747 18.237 7.14062C19.7453 8.30418 22.313 11.7912 23.4083 13.3893C18.1077 12.8937 13.8019 14.2243 12.3115 14.9515ZM10.7569 19.0188C10.703 19.9884 10.9401 22.3155 12.3191 23.8669C12.3191 23.8669 14.2314 20.1823 17.1403 17.9414C20.7764 15.1403 24.3586 15.0325 24.3586 15.0325L23.766 14.0898C23.766 14.0898 19.3489 14.2245 15.6858 15.7598C12.8305 16.9565 10.7569 19.0188 10.7569 19.0188ZM18.1296 19.6377C21.7119 15.7122 24.6746 15.5976 24.6746 15.5976C24.6746 15.5976 27.6725 20.0686 23.8397 24.3242C19.4225 28.6336 14.8437 25.8594 14.8437 25.8594C14.8437 25.8594 16.3251 21.6151 18.1296 19.6377Z" fill="#002C15"/>
<path d="M18.2922 33.4291L18.2916 33.4614H18.2922V33.4291ZM11.1816 29.1736L11.152 29.1863L11.1816 29.1736ZM6.97991 24.7294L6.96285 24.7569L6.96518 24.7581L6.97991 24.7294ZM3.15527 18.2922H3.12259L3.12344 18.2974L3.15527 18.2922ZM18.237 7.14062L18.2567 7.11509L18.2336 7.09723L18.2135 7.11851L18.237 7.14062ZM12.3115 14.9515L12.2817 14.9391L12.249 15.0179L12.3257 14.9805L12.3115 14.9515ZM23.4083 13.3893L23.4053 13.4214L23.4739 13.4278L23.435 13.3711L23.4083 13.3893ZM12.3191 23.8669L12.295 23.8883L12.3261 23.9234L12.3477 23.8818L12.3191 23.8669ZM10.7569 19.0188L10.7342 18.9959L10.7254 19.0046L10.7247 19.017L10.7569 19.0188ZM17.1403 17.9414L17.1599 17.967L17.1403 17.9414ZM24.3586 15.0325L24.3596 15.0648L24.4159 15.0631L24.3859 15.0154L24.3586 15.0325ZM23.766 14.0898L23.7933 14.0727L23.7835 14.057L23.7651 14.0576L23.766 14.0898ZM15.6858 15.7598L15.6983 15.7895L15.6858 15.7598ZM24.6746 15.5976L24.7014 15.5796L24.6914 15.5646L24.6734 15.5653L24.6746 15.5976ZM18.1296 19.6377L18.1535 19.6594L18.1296 19.6377ZM23.8397 24.3242L23.8622 24.3473L23.8636 24.3458L23.8397 24.3242ZM14.8437 25.8594L14.8132 25.8488L14.8046 25.8735L14.827 25.887L14.8437 25.8594ZM18.2917 35.6156C27.8594 35.6156 35.6156 27.8594 35.6156 18.2917H35.551C35.551 27.8238 27.8238 35.551 18.2917 35.551V35.6156ZM0.967744 18.2917C0.967744 27.8594 8.72392 35.6156 18.2917 35.6156V35.551C8.75955 35.551 1.03226 27.8238 1.03226 18.2917H0.967744ZM18.2917 0.967744C8.72392 0.967744 0.967744 8.72392 0.967744 18.2917H1.03226C1.03226 8.75955 8.75955 1.03226 18.2917 1.03226V0.967744ZM35.6156 18.2917C35.6156 8.72392 27.8594 0.967744 18.2917 0.967744V1.03226C27.8238 1.03226 35.551 8.75955 35.551 18.2917H35.6156ZM18.2922 33.4614C26.6699 33.4614 33.4614 26.6699 33.4614 18.2922H33.3969C33.3969 26.6343 26.6343 33.3969 18.2922 33.3969V33.4614ZM11.152 29.1863C11.6031 30.2388 12.2661 31.2881 13.3787 32.0841C14.4915 32.8802 16.0511 33.4209 18.2916 33.4614L18.2928 33.3969C16.0623 33.3566 14.5162 32.8186 13.4163 32.0317C12.3162 31.2447 11.6594 30.2066 11.2113 29.1609L11.152 29.1863ZM6.96518 24.7581C9.00529 25.805 10.3874 27.4022 11.152 29.1863L11.2113 29.1609C10.4409 27.3634 9.0485 25.7547 6.99463 24.7007L6.96518 24.7581ZM3.12344 18.2974C3.45665 20.3307 4.0415 22.9445 6.9629 24.7569L6.99691 24.702C4.10056 22.9052 3.51967 20.3163 3.1871 18.287L3.12344 18.2974ZM18.2922 3.12302C9.91449 3.12302 3.12302 9.91449 3.12302 18.2922H3.18753C3.18753 9.95012 9.95012 3.18753 18.2922 3.18753V3.12302ZM33.4614 18.2922C33.4614 9.91449 26.6699 3.12302 18.2922 3.12302V3.18753C26.6343 3.18753 33.3969 9.95012 33.3969 18.2922H33.4614ZM18.2135 7.11851C17.414 7.96747 16.1582 9.3768 14.9891 10.8462C13.8207 12.3146 12.7362 13.8463 12.2817 14.9391L12.3413 14.9639C12.7919 13.8804 13.871 12.3551 15.0396 10.8864C16.2074 9.41859 17.462 8.01062 18.2605 7.16274L18.2135 7.11851ZM23.435 13.3711C22.8869 12.5715 21.9707 11.2996 21.0028 10.082C20.0356 8.86515 19.0144 7.69956 18.2567 7.11509L18.2173 7.16616C18.968 7.74524 19.9848 8.90495 20.9523 10.1221C21.9191 11.3384 22.8344 12.609 23.3817 13.4076L23.435 13.3711ZM12.3257 14.9805C13.8109 14.2558 18.1109 12.9264 23.4053 13.4214L23.4113 13.3572C18.1046 12.861 13.7928 14.1928 12.2974 14.9225L12.3257 14.9805ZM12.3432 23.8455C11.6582 23.0749 11.2561 22.1106 11.032 21.2168C10.8078 20.3231 10.7624 19.5021 10.7891 19.0206L10.7247 19.017C10.6976 19.505 10.7437 20.3325 10.9694 21.2325C11.1951 22.1325 11.6009 23.1075 12.295 23.8883L12.3432 23.8455ZM17.1206 17.9159C15.6625 19.0391 14.455 20.5235 13.6124 21.726C13.191 22.3274 12.8606 22.8587 12.6356 23.2398C12.523 23.4303 12.4368 23.5832 12.3787 23.6886C12.3496 23.7413 12.3276 23.7821 12.3128 23.8098C12.3054 23.8236 12.2999 23.8341 12.2961 23.8412C12.2943 23.8448 12.2928 23.8475 12.2919 23.8493C12.2914 23.8502 12.2911 23.8509 12.2908 23.8513C12.2907 23.8516 12.2906 23.8517 12.2906 23.8519C12.2905 23.8519 12.2905 23.852 12.2905 23.852C12.2905 23.852 12.2905 23.852 12.3191 23.8669C12.3477 23.8818 12.3477 23.8818 12.3477 23.8817C12.3477 23.8817 12.3478 23.8817 12.3478 23.8816C12.3478 23.8815 12.3479 23.8813 12.348 23.8811C12.3483 23.8807 12.3486 23.88 12.3491 23.8792C12.35 23.8774 12.3514 23.8748 12.3532 23.8713C12.3569 23.8643 12.3624 23.8539 12.3697 23.8402C12.3844 23.8128 12.4063 23.7722 12.4352 23.7198C12.493 23.6149 12.5789 23.4625 12.6911 23.2726C12.9155 22.8927 13.245 22.3628 13.6653 21.763C14.506 20.563 15.7092 19.0846 17.1599 17.967L17.1206 17.9159ZM24.3586 15.0325C24.3576 15.0003 24.3576 15.0003 24.3575 15.0003C24.3575 15.0003 24.3575 15.0003 24.3574 15.0003C24.3573 15.0003 24.3571 15.0003 24.3569 15.0003C24.3564 15.0003 24.3557 15.0004 24.3548 15.0004C24.353 15.0005 24.3503 15.0006 24.3468 15.0007C24.3398 15.001 24.3294 15.0015 24.3157 15.0022C24.2883 15.0037 24.2478 15.0063 24.195 15.0105C24.0894 15.0189 23.9346 15.0342 23.7377 15.0612C23.3437 15.1152 22.7809 15.2165 22.1043 15.4055C20.7511 15.7834 18.9425 16.5123 17.1206 17.9159L17.1599 17.967C18.9741 16.5694 20.7747 15.8438 22.1216 15.4676C22.7951 15.2795 23.355 15.1788 23.7464 15.1251C23.9421 15.0982 24.0956 15.0832 24.2001 15.0748C24.2524 15.0706 24.2924 15.0681 24.3192 15.0666C24.3326 15.0659 24.3428 15.0654 24.3495 15.0652C24.3529 15.065 24.3555 15.0649 24.3571 15.0649C24.358 15.0648 24.3586 15.0648 24.359 15.0648C24.3592 15.0648 24.3593 15.0648 24.3594 15.0648C24.3595 15.0648 24.3595 15.0648 24.3595 15.0648C24.3595 15.0648 24.3596 15.0648 24.3586 15.0325ZM23.7387 14.107L24.3313 15.0497L24.3859 15.0154L23.7933 14.0727L23.7387 14.107ZM15.6983 15.7895C17.5263 15.0234 19.5433 14.6064 21.1042 14.381C21.8844 14.2683 22.5503 14.2036 23.0211 14.167C23.2565 14.1487 23.4431 14.1375 23.5708 14.1308C23.6346 14.1275 23.6837 14.1253 23.7169 14.124C23.7334 14.1233 23.746 14.1228 23.7544 14.1225C23.7586 14.1224 23.7618 14.1223 23.7639 14.1222C23.7649 14.1222 23.7657 14.1221 23.7663 14.1221C23.7665 14.1221 23.7667 14.1221 23.7668 14.1221C23.7669 14.1221 23.7669 14.1221 23.767 14.1221C23.767 14.1221 23.767 14.1221 23.766 14.0898C23.7651 14.0576 23.765 14.0576 23.765 14.0576C23.765 14.0576 23.7649 14.0576 23.7648 14.0576C23.7647 14.0576 23.7645 14.0576 23.7642 14.0576C23.7637 14.0576 23.7628 14.0577 23.7618 14.0577C23.7596 14.0578 23.7564 14.0579 23.7521 14.058C23.7436 14.0583 23.7309 14.0588 23.7142 14.0595C23.6808 14.0609 23.6315 14.0631 23.5674 14.0664C23.4392 14.0731 23.2521 14.0844 23.0161 14.1027C22.5442 14.1394 21.8769 14.2043 21.095 14.3172C19.5315 14.5429 17.5084 14.9609 15.6734 15.73L15.6983 15.7895ZM10.7569 19.0188C10.7797 19.0416 10.7797 19.0416 10.7797 19.0416C10.7797 19.0416 10.7797 19.0416 10.7797 19.0416C10.7798 19.0415 10.7799 19.0414 10.78 19.0413C10.7802 19.0411 10.7806 19.0407 10.7811 19.0402C10.7821 19.0392 10.7836 19.0378 10.7856 19.0358C10.7895 19.0319 10.7955 19.0261 10.8033 19.0185C10.8191 19.0032 10.8427 18.9805 10.8737 18.9513C10.9358 18.8928 11.0277 18.8078 11.1469 18.702C11.3854 18.4904 11.7332 18.1957 12.1701 17.8637C13.0441 17.1996 14.2739 16.3865 15.6983 15.7895L15.6734 15.73C14.2424 16.3298 13.0077 17.1462 12.1311 17.8124C11.6927 18.1455 11.3436 18.4412 11.1041 18.6537C10.9843 18.76 10.892 18.8454 10.8295 18.9044C10.7982 18.9338 10.7744 18.9567 10.7584 18.9722C10.7505 18.9799 10.7444 18.9858 10.7403 18.9898C10.7383 18.9918 10.7368 18.9933 10.7358 18.9943C10.7352 18.9948 10.7348 18.9952 10.7346 18.9955C10.7345 18.9956 10.7344 18.9957 10.7343 18.9958C10.7342 18.9958 10.7342 18.9959 10.7342 18.9959C10.7342 18.9959 10.7342 18.9959 10.7569 19.0188ZM24.6746 15.5976C24.6734 15.5653 24.6733 15.5653 24.6733 15.5653C24.6733 15.5653 24.6732 15.5653 24.6732 15.5653C24.673 15.5653 24.6729 15.5654 24.6727 15.5654C24.6723 15.5654 24.6717 15.5654 24.6709 15.5654C24.6693 15.5655 24.6671 15.5656 24.6641 15.5658C24.6582 15.5662 24.6494 15.5667 24.6379 15.5677C24.6149 15.5695 24.5809 15.5727 24.5364 15.5781C24.4474 15.5891 24.3168 15.609 24.1489 15.6453C23.8132 15.7178 23.3288 15.8554 22.7325 16.116C21.5398 16.6372 19.8999 17.65 18.1058 19.6159L18.1535 19.6594C19.9416 17.7 21.5742 16.6926 22.7584 16.1751C23.3505 15.9164 23.8308 15.78 24.1625 15.7083C24.3284 15.6725 24.4572 15.6529 24.5442 15.6422C24.5878 15.6368 24.6209 15.6337 24.643 15.632C24.6541 15.6311 24.6624 15.6305 24.6679 15.6302C24.6707 15.6301 24.6727 15.6299 24.674 15.6299C24.6747 15.6298 24.6752 15.6298 24.6755 15.6298C24.6756 15.6298 24.6757 15.6298 24.6758 15.6298C24.6758 15.6298 24.6759 15.6298 24.6759 15.6298C24.6759 15.6298 24.6759 15.6298 24.6746 15.5976ZM23.8636 24.3458C25.7877 22.2094 25.9979 20.0174 25.7263 18.3598C25.5905 17.5315 25.3345 16.8369 25.1125 16.3493C25.0015 16.1055 24.8989 15.9133 24.824 15.782C24.7865 15.7163 24.756 15.6659 24.7347 15.6318C24.7241 15.6147 24.7158 15.6017 24.7102 15.593C24.7074 15.5886 24.7052 15.5853 24.7037 15.5831C24.703 15.582 24.7024 15.5811 24.702 15.5805C24.7018 15.5802 24.7017 15.58 24.7016 15.5799C24.7015 15.5798 24.7015 15.5797 24.7015 15.5797C24.7014 15.5796 24.7014 15.5796 24.6746 15.5976C24.6478 15.6155 24.6478 15.6155 24.6478 15.6156C24.6479 15.6156 24.6479 15.6156 24.6479 15.6157C24.648 15.6158 24.6481 15.616 24.6483 15.6162C24.6486 15.6167 24.6491 15.6175 24.6498 15.6186C24.6512 15.6207 24.6533 15.6238 24.656 15.628C24.6615 15.6365 24.6696 15.6491 24.68 15.6659C24.7008 15.6993 24.7309 15.7491 24.7679 15.814C24.842 15.9438 24.9437 16.1342 25.0538 16.376C25.2741 16.8598 25.528 17.5489 25.6626 18.3703C25.9317 20.0121 25.7244 22.1834 23.8157 24.3026L23.8636 24.3458ZM14.8437 25.8594C14.827 25.887 14.827 25.887 14.8271 25.8871C14.8271 25.8871 14.8272 25.8871 14.8272 25.8872C14.8274 25.8873 14.8276 25.8874 14.8279 25.8876C14.8285 25.888 14.8294 25.8885 14.8306 25.8892C14.8329 25.8905 14.8363 25.8925 14.8407 25.8951C14.8497 25.9004 14.863 25.908 14.8805 25.9177C14.9155 25.9372 14.9672 25.9651 15.0345 25.999C15.1692 26.0669 15.3663 26.1589 15.6165 26.2557C16.1169 26.4492 16.8303 26.6622 17.6823 26.74C19.3874 26.8956 21.6461 26.5093 23.8622 24.3473L23.8171 24.3011C21.6161 26.4485 19.3767 26.8298 17.6882 26.6757C16.8434 26.5986 16.1359 26.3874 15.6398 26.1955C15.3917 26.0995 15.1966 26.0084 15.0636 25.9414C14.9971 25.9079 14.9461 25.8804 14.9119 25.8614C14.8948 25.8518 14.8818 25.8444 14.8732 25.8394C14.8689 25.8369 14.8656 25.835 14.8635 25.8337C14.8624 25.8331 14.8616 25.8326 14.8611 25.8323C14.8609 25.8321 14.8607 25.832 14.8606 25.8319C14.8605 25.8319 14.8605 25.8319 14.8604 25.8319C14.8604 25.8319 14.8604 25.8318 14.8437 25.8594ZM18.1058 19.6159C17.1999 20.6087 16.3767 22.1681 15.7806 23.4767C15.4823 24.1315 15.2405 24.7244 15.0733 25.1537C14.9897 25.3683 14.9247 25.542 14.8806 25.6621C14.8585 25.7221 14.8417 25.7688 14.8304 25.8004C14.8247 25.8162 14.8205 25.8283 14.8176 25.8365C14.8161 25.8405 14.8151 25.8436 14.8143 25.8457C14.814 25.8467 14.8137 25.8475 14.8135 25.848C14.8134 25.8483 14.8134 25.8485 14.8133 25.8486C14.8133 25.8487 14.8133 25.8487 14.8133 25.8488C14.8132 25.8488 14.8132 25.8488 14.8437 25.8594C14.8741 25.8701 14.8742 25.8701 14.8742 25.87C14.8742 25.87 14.8742 25.8699 14.8742 25.8699C14.8743 25.8698 14.8743 25.8696 14.8744 25.8693C14.8746 25.8688 14.8749 25.8681 14.8752 25.867C14.8759 25.865 14.877 25.862 14.8784 25.8579C14.8813 25.8499 14.8855 25.8379 14.8911 25.8222C14.9024 25.7907 14.9192 25.7442 14.9412 25.6843C14.9851 25.5646 15.05 25.3913 15.1334 25.1771C15.3003 24.7487 15.5417 24.1569 15.8393 23.5035C16.4351 22.1956 17.2548 20.6442 18.1535 19.6594L18.1058 19.6159Z" fill="black"/>
<path d="M45.17 28V9.8H57.286V12.452H48.316V17.34H56.35V20.486H48.316V28H45.17ZM67.7851 14.116H70.8271V21.084C70.8271 24.906 67.8631 28.026 64.2751 28.026C60.6611 28.026 57.7231 24.906 57.7231 21.084V14.142H60.7391V21.084C60.7391 23.242 62.3251 25.01 64.2751 25.01C66.1991 25.01 67.7851 23.242 67.7851 21.084V14.116ZM84.7489 22.098H74.8429C75.2069 23.866 76.6369 25.166 78.3269 25.166C79.6009 25.166 80.7189 24.438 81.3429 23.32H84.4889C83.6569 26.076 81.2129 28.078 78.3269 28.078C74.7389 28.078 71.8529 24.984 71.8529 21.188C71.8529 17.392 74.7389 14.298 78.3269 14.298C81.2129 14.298 83.6569 16.3 84.4889 19.056C84.6969 19.732 84.8009 20.434 84.8009 21.188C84.8009 21.5 84.8009 21.786 84.7489 22.098ZM75.3109 19.056H81.3429C80.7189 17.938 79.6009 17.21 78.3269 17.21C77.0529 17.21 75.9349 17.938 75.3109 19.056ZM89.1204 28.026H86.1304V9.8H89.1204V28.026ZM91.1534 28V9.8H103.269V12.452H94.2994V17.34H102.333V20.486H94.2994V28H91.1534ZM107.313 28.026H104.323V9.8H107.313V28.026ZM119.018 14.116H122.06V21.084C122.06 24.906 119.096 28.026 115.508 28.026C111.894 28.026 108.956 24.906 108.956 21.084V14.142H111.972V21.084C111.972 23.242 113.558 25.01 115.508 25.01C117.432 25.01 119.018 23.242 119.018 21.084V14.116ZM135.488 14.09L130.886 21.058L135.488 28H131.848L129.066 23.788L126.258 28H122.644L127.246 21.058L122.644 14.09H126.258L129.066 18.302L131.848 14.09H135.488Z" fill="#002C15"/>
</svg>
