<svg width="188" height="50" viewBox="0 0 188 50" fill="none" xmlns="http://www.w3.org/2000/svg">
<path fill-rule="evenodd" clip-rule="evenodd" d="M24.6505 49.3066C38.2658 49.3066 49.3033 38.2691 49.3033 24.6538C49.3033 11.0384 38.2658 0.000976562 24.6505 0.000976562C11.0351 0.000976562 -0.00231934 11.0384 -0.00231934 24.6538C-0.00231934 38.2691 11.0351 49.3066 24.6505 49.3066ZM24.6507 46.2345C36.5695 46.2345 46.2315 36.5724 46.2315 24.6537C46.2315 12.7349 36.5695 3.07288 24.6507 3.07288C12.732 3.07288 3.06995 12.7349 3.06995 24.6537C3.54454 27.5497 4.37555 31.2585 8.52275 33.8313C11.4411 35.3289 13.419 37.6142 14.5131 40.1673C15.7952 43.1588 18.2763 46.1193 24.6507 46.2345Z" fill="#1C432F"/>
<path d="M24.5746 8.75537C22.2962 11.1746 17.4168 16.7887 16.1266 19.8914C18.2514 18.8546 24.3903 16.9576 31.9474 17.6642C30.3858 15.3858 26.725 10.4143 24.5746 8.75537Z" fill="#E47B37"/>
<path d="M13.9099 25.6898C13.8331 27.0722 14.171 30.39 16.1371 32.6018C16.1371 32.6018 18.8634 27.3487 23.0106 24.1538C28.1946 20.1602 33.3018 20.0066 33.3018 20.0066L32.457 18.6626C32.457 18.6626 26.1594 18.8546 20.937 21.0434C16.8661 22.7496 13.9099 25.6898 13.9099 25.6898Z" fill="#E47B37"/>
<path d="M33.7523 20.813C33.7523 20.813 29.5283 20.9765 24.4211 26.573C21.8483 29.3923 19.7363 35.4434 19.7363 35.4434C19.7363 35.4434 26.2643 39.3986 32.5619 33.2546C38.0264 27.1874 33.7523 20.813 33.7523 20.813Z" fill="#E47B37"/>
<path d="M69.8872 12.7595V15.7355H60.4472V22.2955H67.8072V25.2715H60.4472V34.9995H56.7992V12.7595H69.8872ZM89.8759 17.3675V34.9995H86.2279V32.9195C85.6519 33.6448 84.8946 34.2208 83.9559 34.6475C83.0386 35.0528 82.0573 35.2555 81.0119 35.2555C79.6253 35.2555 78.3773 34.9675 77.2679 34.3915C76.1799 33.8155 75.3159 32.9622 74.6759 31.8315C74.0573 30.7008 73.7479 29.3355 73.7479 27.7355V17.3675H77.3639V27.1915C77.3639 28.7702 77.7586 29.9862 78.5479 30.8395C79.3373 31.6715 80.4146 32.0875 81.7799 32.0875C83.1453 32.0875 84.2226 31.6715 85.0119 30.8395C85.8226 29.9862 86.2279 28.7702 86.2279 27.1915V17.3675H89.8759ZM98.9772 11.3195V34.9995H95.3292V11.3195H98.9772ZM120.567 25.7515C120.567 26.4128 120.524 27.0102 120.439 27.5435H106.967C107.073 28.9515 107.596 30.0822 108.535 30.9355C109.473 31.7888 110.625 32.2155 111.991 32.2155C113.953 32.2155 115.34 31.3942 116.151 29.7515H120.087C119.553 31.3728 118.583 32.7062 117.175 33.7515C115.788 34.7755 114.06 35.2875 111.991 35.2875C110.305 35.2875 108.791 34.9142 107.447 34.1675C106.124 33.3995 105.079 32.3328 104.311 30.9675C103.564 29.5808 103.191 27.9808 103.191 26.1675C103.191 24.3542 103.553 22.7648 104.279 21.3995C105.025 20.0128 106.06 18.9462 107.383 18.1995C108.727 17.4528 110.263 17.0795 111.991 17.0795C113.655 17.0795 115.137 17.4422 116.439 18.1675C117.74 18.8928 118.753 19.9168 119.479 21.2395C120.204 22.5408 120.567 24.0448 120.567 25.7515ZM116.759 24.5995C116.737 23.2555 116.257 22.1782 115.319 21.3675C114.38 20.5568 113.217 20.1515 111.831 20.1515C110.572 20.1515 109.495 20.5568 108.599 21.3675C107.703 22.1568 107.169 23.2342 106.999 24.5995H116.759ZM137.885 12.7595V15.7355H128.445V22.2955H135.805V25.2715H128.445V34.9995H124.797V12.7595H137.885ZM145.553 11.3195V34.9995H141.905V11.3195H145.553ZM166.951 17.3675V34.9995H163.303V32.9195C162.727 33.6448 161.97 34.2208 161.031 34.6475C160.114 35.0528 159.132 35.2555 158.087 35.2555C156.7 35.2555 155.452 34.9675 154.343 34.3915C153.255 33.8155 152.391 32.9622 151.751 31.8315C151.132 30.7008 150.823 29.3355 150.823 27.7355V17.3675H154.439V27.1915C154.439 28.7702 154.834 29.9862 155.623 30.8395C156.412 31.6715 157.49 32.0875 158.855 32.0875C160.22 32.0875 161.298 31.6715 162.087 30.8395C162.898 29.9862 163.303 28.7702 163.303 27.1915V17.3675H166.951ZM179.956 26.0715L185.652 34.9995H181.524L177.716 29.0155L174.132 34.9995H170.324L176.02 26.3275L170.324 17.3675H174.452L178.26 23.3515L181.844 17.3675H185.652L179.956 26.0715Z" fill="#1C432F"/>
</svg>
